<mxfile host="65bd71144e">
    <diagram id="5tLmBMSgxDgYBMJxbZya" name="Entidades">
        <mxGraphModel dx="615" dy="638" grid="1" gridSize="10" guides="1" tooltips="1" connect="1" arrows="1" fold="1" page="1" pageScale="1" pageWidth="1169" pageHeight="827" math="0" shadow="0">
            <root>
                <mxCell id="0"/>
                <mxCell id="1" parent="0"/>
                <mxCell id="102" style="edgeStyle=none;html=1;exitX=1;exitY=0;exitDx=0;exitDy=0;entryX=0;entryY=0.5;entryDx=0;entryDy=0;endArrow=none;endFill=0;" edge="1" parent="1" source="35" target="101">
                    <mxGeometry relative="1" as="geometry"/>
                </mxCell>
                <mxCell id="35" value="#StatusEntrega (ENUM)" style="swimlane;fontStyle=0;childLayout=stackLayout;horizontal=1;startSize=26;fillColor=none;horizontalStack=0;resizeParent=1;resizeParentMax=0;resizeLast=0;collapsible=1;marginBottom=0;" parent="1" vertex="1">
                    <mxGeometry x="90" y="496" width="140" height="104" as="geometry"/>
                </mxCell>
                <mxCell id="36" value="+ PENDENTE" style="text;strokeColor=none;fillColor=none;align=left;verticalAlign=top;spacingLeft=4;spacingRight=4;overflow=hidden;rotatable=0;points=[[0,0.5],[1,0.5]];portConstraint=eastwest;" parent="35" vertex="1">
                    <mxGeometry y="26" width="140" height="26" as="geometry"/>
                </mxCell>
                <mxCell id="37" value="+ FINALIZADA" style="text;strokeColor=none;fillColor=none;align=left;verticalAlign=top;spacingLeft=4;spacingRight=4;overflow=hidden;rotatable=0;points=[[0,0.5],[1,0.5]];portConstraint=eastwest;" parent="35" vertex="1">
                    <mxGeometry y="52" width="140" height="26" as="geometry"/>
                </mxCell>
                <mxCell id="38" value="+ CANCELADA" style="text;strokeColor=none;fillColor=none;align=left;verticalAlign=top;spacingLeft=4;spacingRight=4;overflow=hidden;rotatable=0;points=[[0,0.5],[1,0.5]];portConstraint=eastwest;" parent="35" vertex="1">
                    <mxGeometry y="78" width="140" height="26" as="geometry"/>
                </mxCell>
                <mxCell id="39" value="#Destinatario (Object)" style="swimlane;fontStyle=0;childLayout=stackLayout;horizontal=1;startSize=26;fillColor=none;horizontalStack=0;resizeParent=1;resizeParentMax=0;resizeLast=0;collapsible=1;marginBottom=0;" parent="1" vertex="1">
                    <mxGeometry x="90" y="300" width="140" height="156" as="geometry"/>
                </mxCell>
                <mxCell id="88" value="+ nome: String" style="text;strokeColor=none;fillColor=none;align=left;verticalAlign=top;spacingLeft=4;spacingRight=4;overflow=hidden;rotatable=0;points=[[0,0.5],[1,0.5]];portConstraint=eastwest;" parent="39" vertex="1">
                    <mxGeometry y="26" width="140" height="26" as="geometry"/>
                </mxCell>
                <mxCell id="55" value="+ logradouro: String" style="text;strokeColor=none;fillColor=none;align=left;verticalAlign=top;spacingLeft=4;spacingRight=4;overflow=hidden;rotatable=0;points=[[0,0.5],[1,0.5]];portConstraint=eastwest;" parent="39" vertex="1">
                    <mxGeometry y="52" width="140" height="26" as="geometry"/>
                </mxCell>
                <mxCell id="56" value="+ numero: String" style="text;strokeColor=none;fillColor=none;align=left;verticalAlign=top;spacingLeft=4;spacingRight=4;overflow=hidden;rotatable=0;points=[[0,0.5],[1,0.5]];portConstraint=eastwest;" parent="39" vertex="1">
                    <mxGeometry y="78" width="140" height="26" as="geometry"/>
                </mxCell>
                <mxCell id="57" value="+ complemento: String" style="text;strokeColor=none;fillColor=none;align=left;verticalAlign=top;spacingLeft=4;spacingRight=4;overflow=hidden;rotatable=0;points=[[0,0.5],[1,0.5]];portConstraint=eastwest;" parent="39" vertex="1">
                    <mxGeometry y="104" width="140" height="26" as="geometry"/>
                </mxCell>
                <mxCell id="58" value="+ bairro: String" style="text;strokeColor=none;fillColor=none;align=left;verticalAlign=top;spacingLeft=4;spacingRight=4;overflow=hidden;rotatable=0;points=[[0,0.5],[1,0.5]];portConstraint=eastwest;" parent="39" vertex="1">
                    <mxGeometry y="130" width="140" height="26" as="geometry"/>
                </mxCell>
                <mxCell id="43" value="#Cliente" style="swimlane;fontStyle=0;childLayout=stackLayout;horizontal=1;startSize=26;fillColor=none;horizontalStack=0;resizeParent=1;resizeParentMax=0;resizeLast=0;collapsible=1;marginBottom=0;" parent="1" vertex="1">
                    <mxGeometry x="560" y="470" width="140" height="130" as="geometry"/>
                </mxCell>
                <mxCell id="44" value="+ id: Long" style="text;strokeColor=none;fillColor=none;align=left;verticalAlign=top;spacingLeft=4;spacingRight=4;overflow=hidden;rotatable=0;points=[[0,0.5],[1,0.5]];portConstraint=eastwest;" parent="43" vertex="1">
                    <mxGeometry y="26" width="140" height="26" as="geometry"/>
                </mxCell>
                <mxCell id="59" value="+ email: String" style="text;strokeColor=none;fillColor=none;align=left;verticalAlign=top;spacingLeft=4;spacingRight=4;overflow=hidden;rotatable=0;points=[[0,0.5],[1,0.5]];portConstraint=eastwest;" parent="43" vertex="1">
                    <mxGeometry y="52" width="140" height="26" as="geometry"/>
                </mxCell>
                <mxCell id="60" value="+ telefone: String" style="text;strokeColor=none;fillColor=none;align=left;verticalAlign=top;spacingLeft=4;spacingRight=4;overflow=hidden;rotatable=0;points=[[0,0.5],[1,0.5]];portConstraint=eastwest;" parent="43" vertex="1">
                    <mxGeometry y="78" width="140" height="26" as="geometry"/>
                </mxCell>
                <mxCell id="85" value="+ nome: String" style="text;strokeColor=none;fillColor=none;align=left;verticalAlign=top;spacingLeft=4;spacingRight=4;overflow=hidden;rotatable=0;points=[[0,0.5],[1,0.5]];portConstraint=eastwest;" parent="43" vertex="1">
                    <mxGeometry y="104" width="140" height="26" as="geometry"/>
                </mxCell>
                <mxCell id="74" style="edgeStyle=none;html=1;entryX=1.013;entryY=0.09;entryDx=0;entryDy=0;entryPerimeter=0;exitX=-0.015;exitY=0.035;exitDx=0;exitDy=0;exitPerimeter=0;endArrow=none;endFill=0;" parent="1" source="47" target="61" edge="1">
                    <mxGeometry relative="1" as="geometry"/>
                </mxCell>
                <mxCell id="47" value="#Entrega" style="swimlane;fontStyle=0;childLayout=stackLayout;horizontal=1;startSize=26;fillColor=none;horizontalStack=0;resizeParent=1;resizeParentMax=0;resizeLast=0;collapsible=1;marginBottom=0;" parent="1" vertex="1">
                    <mxGeometry x="310" y="210" width="200" height="312" as="geometry"/>
                </mxCell>
                <mxCell id="48" value="+ id: Long" style="text;strokeColor=none;fillColor=none;align=left;verticalAlign=top;spacingLeft=4;spacingRight=4;overflow=hidden;rotatable=0;points=[[0,0.5],[1,0.5]];portConstraint=eastwest;" parent="47" vertex="1">
                    <mxGeometry y="26" width="200" height="26" as="geometry"/>
                </mxCell>
                <mxCell id="49" value="+ dataPedido: DateTime" style="text;strokeColor=none;fillColor=none;align=left;verticalAlign=top;spacingLeft=4;spacingRight=4;overflow=hidden;rotatable=0;points=[[0,0.5],[1,0.5]];portConstraint=eastwest;" parent="47" vertex="1">
                    <mxGeometry y="52" width="200" height="26" as="geometry"/>
                </mxCell>
                <mxCell id="50" value="+ dataFinalizacao: DateTime" style="text;strokeColor=none;fillColor=none;align=left;verticalAlign=top;spacingLeft=4;spacingRight=4;overflow=hidden;rotatable=0;points=[[0,0.5],[1,0.5]];portConstraint=eastwest;" parent="47" vertex="1">
                    <mxGeometry y="78" width="200" height="26" as="geometry"/>
                </mxCell>
                <mxCell id="87" value="+ taxa: BigDecimal" style="text;strokeColor=none;fillColor=none;align=left;verticalAlign=top;spacingLeft=4;spacingRight=4;overflow=hidden;rotatable=0;points=[[0,0.5],[1,0.5]];portConstraint=eastwest;" parent="47" vertex="1">
                    <mxGeometry y="104" width="200" height="26" as="geometry"/>
                </mxCell>
                <mxCell id="90" value="+ destinatario_nome: String" style="text;strokeColor=none;fillColor=none;align=left;verticalAlign=top;spacingLeft=4;spacingRight=4;overflow=hidden;rotatable=0;points=[[0,0.5],[1,0.5]];portConstraint=eastwest;" vertex="1" parent="47">
                    <mxGeometry y="130" width="200" height="26" as="geometry"/>
                </mxCell>
                <mxCell id="91" value="+ destinatario_logradouro: String" style="text;strokeColor=none;fillColor=none;align=left;verticalAlign=top;spacingLeft=4;spacingRight=4;overflow=hidden;rotatable=0;points=[[0,0.5],[1,0.5]];portConstraint=eastwest;" vertex="1" parent="47">
                    <mxGeometry y="156" width="200" height="26" as="geometry"/>
                </mxCell>
                <mxCell id="92" value="+ destinatario_ numero: String" style="text;strokeColor=none;fillColor=none;align=left;verticalAlign=top;spacingLeft=4;spacingRight=4;overflow=hidden;rotatable=0;points=[[0,0.5],[1,0.5]];portConstraint=eastwest;" vertex="1" parent="47">
                    <mxGeometry y="182" width="200" height="26" as="geometry"/>
                </mxCell>
                <mxCell id="96" value="+ destinatario_ complemento: String" style="text;strokeColor=none;fillColor=none;align=left;verticalAlign=top;spacingLeft=4;spacingRight=4;overflow=hidden;rotatable=0;points=[[0,0.5],[1,0.5]];portConstraint=eastwest;" vertex="1" parent="47">
                    <mxGeometry y="208" width="200" height="26" as="geometry"/>
                </mxCell>
                <mxCell id="97" value="+ destinatario_ bairro: String" style="text;strokeColor=none;fillColor=none;align=left;verticalAlign=top;spacingLeft=4;spacingRight=4;overflow=hidden;rotatable=0;points=[[0,0.5],[1,0.5]];portConstraint=eastwest;" vertex="1" parent="47">
                    <mxGeometry y="234" width="200" height="26" as="geometry"/>
                </mxCell>
                <mxCell id="101" value="+ status_entrega: String" style="text;strokeColor=none;fillColor=none;align=left;verticalAlign=top;spacingLeft=4;spacingRight=4;overflow=hidden;rotatable=0;points=[[0,0.5],[1,0.5]];portConstraint=eastwest;" vertex="1" parent="47">
                    <mxGeometry y="260" width="200" height="26" as="geometry"/>
                </mxCell>
                <mxCell id="103" value="+ cliente_id: Long" style="text;strokeColor=none;fillColor=none;align=left;verticalAlign=top;spacingLeft=4;spacingRight=4;overflow=hidden;rotatable=0;points=[[0,0.5],[1,0.5]];portConstraint=eastwest;" vertex="1" parent="47">
                    <mxGeometry y="286" width="200" height="26" as="geometry"/>
                </mxCell>
                <mxCell id="61" value="#Ocorrencia" style="swimlane;fontStyle=0;childLayout=stackLayout;horizontal=1;startSize=26;fillColor=none;horizontalStack=0;resizeParent=1;resizeParentMax=0;resizeLast=0;collapsible=1;marginBottom=0;" parent="1" vertex="1">
                    <mxGeometry x="90" y="180" width="160" height="78" as="geometry"/>
                </mxCell>
                <mxCell id="62" value="+ descricao: String" style="text;strokeColor=none;fillColor=none;align=left;verticalAlign=top;spacingLeft=4;spacingRight=4;overflow=hidden;rotatable=0;points=[[0,0.5],[1,0.5]];portConstraint=eastwest;" parent="61" vertex="1">
                    <mxGeometry y="26" width="160" height="26" as="geometry"/>
                </mxCell>
                <mxCell id="63" value="+ dataRegistro: DateTime" style="text;strokeColor=none;fillColor=none;align=left;verticalAlign=top;spacingLeft=4;spacingRight=4;overflow=hidden;rotatable=0;points=[[0,0.5],[1,0.5]];portConstraint=eastwest;" parent="61" vertex="1">
                    <mxGeometry y="52" width="160" height="26" as="geometry"/>
                </mxCell>
                <mxCell id="84" value="0..n" style="text;html=1;align=center;verticalAlign=middle;resizable=0;points=[];autosize=1;strokeColor=none;fillColor=none;" parent="1" vertex="1">
                    <mxGeometry x="260" y="170" width="40" height="30" as="geometry"/>
                </mxCell>
                <mxCell id="93" style="edgeStyle=none;html=1;exitX=1;exitY=0.5;exitDx=0;exitDy=0;entryX=0;entryY=0.5;entryDx=0;entryDy=0;endArrow=none;endFill=0;" edge="1" parent="1" source="88" target="90">
                    <mxGeometry relative="1" as="geometry"/>
                </mxCell>
                <mxCell id="95" style="edgeStyle=none;html=1;exitX=1;exitY=0.5;exitDx=0;exitDy=0;entryX=0;entryY=0.5;entryDx=0;entryDy=0;endArrow=none;endFill=0;" edge="1" parent="1" source="55" target="91">
                    <mxGeometry relative="1" as="geometry"/>
                </mxCell>
                <mxCell id="98" style="edgeStyle=none;html=1;exitX=1;exitY=0.5;exitDx=0;exitDy=0;entryX=0;entryY=0.5;entryDx=0;entryDy=0;endArrow=none;endFill=0;" edge="1" parent="1" source="56" target="92">
                    <mxGeometry relative="1" as="geometry"/>
                </mxCell>
                <mxCell id="99" style="edgeStyle=none;html=1;exitX=1;exitY=0.5;exitDx=0;exitDy=0;entryX=0;entryY=0.5;entryDx=0;entryDy=0;endArrow=none;endFill=0;" edge="1" parent="1" source="57" target="96">
                    <mxGeometry relative="1" as="geometry"/>
                </mxCell>
                <mxCell id="100" style="edgeStyle=none;html=1;exitX=1;exitY=0.5;exitDx=0;exitDy=0;entryX=0;entryY=0.5;entryDx=0;entryDy=0;endArrow=none;endFill=0;" edge="1" parent="1" source="58" target="97">
                    <mxGeometry relative="1" as="geometry"/>
                </mxCell>
                <mxCell id="104" style="edgeStyle=none;html=1;exitX=1;exitY=0.5;exitDx=0;exitDy=0;entryX=0;entryY=0.5;entryDx=0;entryDy=0;endArrow=none;endFill=0;" edge="1" parent="1" source="103" target="44">
                    <mxGeometry relative="1" as="geometry"/>
                </mxCell>
            </root>
        </mxGraphModel>
    </diagram>
    <diagram id="7nRU8KSiS7WhjEOGO8yk" name="Componentes">
        <mxGraphModel dx="615" dy="638" grid="1" gridSize="10" guides="1" tooltips="1" connect="1" arrows="1" fold="1" page="1" pageScale="2" pageWidth="1169" pageHeight="827" math="0" shadow="0">
            <root>
                <mxCell id="0"/>
                <mxCell id="1" parent="0"/>
                <mxCell id="JBc-oJvSOb936fm6z87Y-61" value="" style="rounded=0;whiteSpace=wrap;html=1;strokeColor=#FFFFFF;fillColor=#76608a;strokeWidth=2;fontColor=#ffffff;dashed=1;" parent="1" vertex="1">
                    <mxGeometry x="609" y="110" width="160" height="140" as="geometry"/>
                </mxCell>
                <mxCell id="JBc-oJvSOb936fm6z87Y-27" value="" style="rounded=0;whiteSpace=wrap;html=1;strokeColor=default;fillColor=#003366;gradientColor=none;strokeWidth=2;dashed=1;" parent="1" vertex="1">
                    <mxGeometry x="350" y="280" width="690" height="680" as="geometry"/>
                </mxCell>
                <mxCell id="JBc-oJvSOb936fm6z87Y-20" value="" style="rounded=0;whiteSpace=wrap;html=1;strokeColor=default;fillColor=#663300;gradientColor=none;strokeWidth=2;dashed=1;" parent="1" vertex="1">
                    <mxGeometry x="150" y="280" width="190" height="680" as="geometry"/>
                </mxCell>
                <mxCell id="JBc-oJvSOb936fm6z87Y-9" value="" style="rounded=0;whiteSpace=wrap;html=1;fillColor=none;gradientColor=none;dashed=1;strokeWidth=2;" parent="1" vertex="1">
                    <mxGeometry x="170" y="318" width="150" height="162" as="geometry"/>
                </mxCell>
                <mxCell id="JBc-oJvSOb936fm6z87Y-12" value="" style="rounded=0;whiteSpace=wrap;html=1;fillColor=none;gradientColor=none;dashed=1;strokeWidth=2;" parent="1" vertex="1">
                    <mxGeometry x="170" y="745" width="150" height="170" as="geometry"/>
                </mxCell>
                <mxCell id="JBc-oJvSOb936fm6z87Y-4" value="API" style="text;html=1;align=center;verticalAlign=middle;resizable=0;points=[];autosize=1;strokeColor=none;fillColor=none;" parent="1" vertex="1">
                    <mxGeometry x="140" y="250" width="40" height="30" as="geometry"/>
                </mxCell>
                <mxCell id="JBc-oJvSOb936fm6z87Y-46" style="edgeStyle=orthogonalEdgeStyle;html=1;entryX=0;entryY=0.5;entryDx=0;entryDy=0;elbow=vertical;fillColor=#1ba1e2;strokeColor=#006EAF;startArrow=none;startFill=0;strokeWidth=2;" parent="1" source="JBc-oJvSOb936fm6z87Y-5" target="JBc-oJvSOb936fm6z87Y-16" edge="1">
                    <mxGeometry relative="1" as="geometry">
                        <Array as="points">
                            <mxPoint x="120" y="440"/>
                            <mxPoint x="120" y="355"/>
                        </Array>
                    </mxGeometry>
                </mxCell>
                <mxCell id="JBc-oJvSOb936fm6z87Y-5" value="" style="outlineConnect=0;dashed=0;verticalLabelPosition=bottom;verticalAlign=top;align=center;html=1;shape=mxgraph.aws3.http_protocol;fillColor=#5294CF;gradientColor=none;" parent="1" vertex="1">
                    <mxGeometry x="28.5" y="410" width="63" height="66" as="geometry"/>
                </mxCell>
                <mxCell id="JBc-oJvSOb936fm6z87Y-7" style="edgeStyle=none;html=1;entryX=0.5;entryY=0;entryDx=0;entryDy=0;entryPerimeter=0;fillColor=#1ba1e2;strokeColor=#006EAF;strokeWidth=2;" parent="1" source="JBc-oJvSOb936fm6z87Y-6" target="JBc-oJvSOb936fm6z87Y-5" edge="1">
                    <mxGeometry relative="1" as="geometry"/>
                </mxCell>
                <mxCell id="JBc-oJvSOb936fm6z87Y-6" value="" style="image;html=1;image=img/lib/clip_art/computers/MacBook_128x128.png;fillColor=#FF99CC;gradientColor=none;" parent="1" vertex="1">
                    <mxGeometry x="40" y="270" width="40" height="70" as="geometry"/>
                </mxCell>
                <mxCell id="JBc-oJvSOb936fm6z87Y-10" value="Frontend" style="text;html=1;align=center;verticalAlign=middle;resizable=0;points=[];autosize=1;strokeColor=none;fillColor=none;" parent="1" vertex="1">
                    <mxGeometry x="20" y="260" width="70" height="30" as="geometry"/>
                </mxCell>
                <mxCell id="JBc-oJvSOb936fm6z87Y-11" value="Controller" style="text;html=1;align=center;verticalAlign=middle;resizable=0;points=[];autosize=1;strokeColor=none;fillColor=none;" parent="1" vertex="1">
                    <mxGeometry x="160" y="290" width="80" height="30" as="geometry"/>
                </mxCell>
                <mxCell id="JBc-oJvSOb936fm6z87Y-13" value="ExceptionHandler" style="text;html=1;align=center;verticalAlign=middle;resizable=0;points=[];autosize=1;strokeColor=none;fillColor=none;" parent="1" vertex="1">
                    <mxGeometry x="160" y="915" width="120" height="30" as="geometry"/>
                </mxCell>
                <mxCell id="JBc-oJvSOb936fm6z87Y-33" style="edgeStyle=none;html=1;exitX=1;exitY=0;exitDx=0;exitDy=0;entryX=0;entryY=0;entryDx=0;entryDy=0;fillColor=#1ba1e2;strokeColor=#006EAF;startArrow=none;startFill=0;strokeWidth=2;" parent="1" source="JBc-oJvSOb936fm6z87Y-16" target="JBc-oJvSOb936fm6z87Y-30" edge="1">
                    <mxGeometry relative="1" as="geometry"/>
                </mxCell>
                <mxCell id="GvW7jPXklJ2FE04fTyrZ-8" style="edgeStyle=orthogonalEdgeStyle;html=1;exitX=0;exitY=1;exitDx=0;exitDy=0;fillColor=#1ba1e2;strokeColor=#006EAF;strokeWidth=2;" parent="1" source="JBc-oJvSOb936fm6z87Y-16" edge="1">
                    <mxGeometry relative="1" as="geometry">
                        <mxPoint x="90" y="460" as="targetPoint"/>
                        <Array as="points">
                            <mxPoint x="192" y="460"/>
                            <mxPoint x="92" y="460"/>
                        </Array>
                    </mxGeometry>
                </mxCell>
                <mxCell id="JBc-oJvSOb936fm6z87Y-16" value="#ClienteController" style="rounded=0;whiteSpace=wrap;html=1;" parent="1" vertex="1">
                    <mxGeometry x="192" y="340" width="100" height="30" as="geometry"/>
                </mxCell>
                <mxCell id="JBc-oJvSOb936fm6z87Y-21" value="Service" style="text;html=1;align=center;verticalAlign=middle;resizable=0;points=[];autosize=1;strokeColor=none;fillColor=none;" parent="1" vertex="1">
                    <mxGeometry x="402" y="280" width="60" height="30" as="geometry"/>
                </mxCell>
                <mxCell id="JBc-oJvSOb936fm6z87Y-22" value="" style="rounded=0;whiteSpace=wrap;html=1;strokeColor=default;fillColor=none;gradientColor=none;dashed=1;strokeWidth=2;" parent="1" vertex="1">
                    <mxGeometry x="408" y="310" width="170" height="400" as="geometry"/>
                </mxCell>
                <mxCell id="JBc-oJvSOb936fm6z87Y-23" value="Repository" style="text;html=1;align=center;verticalAlign=middle;resizable=0;points=[];autosize=1;strokeColor=none;fillColor=none;" parent="1" vertex="1">
                    <mxGeometry x="587" y="280" width="80" height="30" as="geometry"/>
                </mxCell>
                <mxCell id="JBc-oJvSOb936fm6z87Y-24" value="" style="rounded=0;whiteSpace=wrap;html=1;strokeColor=default;fillColor=none;gradientColor=none;dashed=1;strokeWidth=2;" parent="1" vertex="1">
                    <mxGeometry x="598" y="310" width="170" height="400" as="geometry"/>
                </mxCell>
                <mxCell id="JBc-oJvSOb936fm6z87Y-25" value="Model" style="text;html=1;align=center;verticalAlign=middle;resizable=0;points=[];autosize=1;strokeColor=none;fillColor=none;" parent="1" vertex="1">
                    <mxGeometry x="779" y="280" width="60" height="30" as="geometry"/>
                </mxCell>
                <mxCell id="JBc-oJvSOb936fm6z87Y-26" value="" style="rounded=0;whiteSpace=wrap;html=1;strokeColor=default;fillColor=none;gradientColor=none;dashed=1;strokeWidth=2;" parent="1" vertex="1">
                    <mxGeometry x="788" y="310" width="190" height="400" as="geometry"/>
                </mxCell>
                <mxCell id="JBc-oJvSOb936fm6z87Y-28" value="Domain" style="text;html=1;align=center;verticalAlign=middle;resizable=0;points=[];autosize=1;strokeColor=none;fillColor=none;" parent="1" vertex="1">
                    <mxGeometry x="340" y="250" width="60" height="30" as="geometry"/>
                </mxCell>
                <mxCell id="JBc-oJvSOb936fm6z87Y-51" style="edgeStyle=none;html=1;exitX=0;exitY=1;exitDx=0;exitDy=0;entryX=1;entryY=1;entryDx=0;entryDy=0;strokeWidth=2;startArrow=none;startFill=0;elbow=vertical;fillColor=#f0a30a;strokeColor=#BD7000;" parent="1" source="JBc-oJvSOb936fm6z87Y-29" target="JBc-oJvSOb936fm6z87Y-31" edge="1">
                    <mxGeometry relative="1" as="geometry"/>
                </mxCell>
                <mxCell id="JBc-oJvSOb936fm6z87Y-29" value="#Cliente" style="rounded=0;whiteSpace=wrap;html=1;" parent="1" vertex="1">
                    <mxGeometry x="818" y="340" width="130" height="30" as="geometry"/>
                </mxCell>
                <mxCell id="JBc-oJvSOb936fm6z87Y-34" style="edgeStyle=none;html=1;exitX=1;exitY=0;exitDx=0;exitDy=0;entryX=0;entryY=0;entryDx=0;entryDy=0;fillColor=#1ba1e2;strokeColor=#006EAF;startArrow=none;startFill=0;strokeWidth=2;" parent="1" source="JBc-oJvSOb936fm6z87Y-30" target="JBc-oJvSOb936fm6z87Y-31" edge="1">
                    <mxGeometry relative="1" as="geometry"/>
                </mxCell>
                <mxCell id="JBc-oJvSOb936fm6z87Y-53" style="edgeStyle=none;html=1;exitX=0;exitY=1;exitDx=0;exitDy=0;entryX=1;entryY=1;entryDx=0;entryDy=0;strokeWidth=2;startArrow=none;startFill=0;elbow=vertical;fillColor=#f0a30a;strokeColor=#BD7000;" parent="1" source="JBc-oJvSOb936fm6z87Y-30" target="JBc-oJvSOb936fm6z87Y-16" edge="1">
                    <mxGeometry relative="1" as="geometry"/>
                </mxCell>
                <mxCell id="-iAihdPPw5jGBnyz0dWe-18" style="edgeStyle=orthogonalEdgeStyle;html=1;exitX=0.25;exitY=1;exitDx=0;exitDy=0;entryX=1;entryY=0.5;entryDx=0;entryDy=0;strokeWidth=2;startArrow=classic;startFill=1;endArrow=classic;endFill=1;fillColor=#e51400;strokeColor=#B20000;" parent="1" source="JBc-oJvSOb936fm6z87Y-30" target="-iAihdPPw5jGBnyz0dWe-16" edge="1">
                    <mxGeometry relative="1" as="geometry"/>
                </mxCell>
                <mxCell id="-iAihdPPw5jGBnyz0dWe-19" style="edgeStyle=orthogonalEdgeStyle;html=1;exitX=0.25;exitY=0;exitDx=0;exitDy=0;entryX=1;entryY=0.5;entryDx=0;entryDy=0;strokeWidth=2;startArrow=classic;startFill=1;endArrow=classic;endFill=1;fillColor=#e51400;strokeColor=#B20000;" parent="1" source="JBc-oJvSOb936fm6z87Y-30" target="-iAihdPPw5jGBnyz0dWe-15" edge="1">
                    <mxGeometry relative="1" as="geometry">
                        <Array as="points">
                            <mxPoint x="458" y="324"/>
                        </Array>
                    </mxGeometry>
                </mxCell>
                <mxCell id="JBc-oJvSOb936fm6z87Y-30" value="#ClienteService" style="rounded=0;whiteSpace=wrap;html=1;" parent="1" vertex="1">
                    <mxGeometry x="428" y="340" width="120" height="30" as="geometry"/>
                </mxCell>
                <mxCell id="JBc-oJvSOb936fm6z87Y-35" style="edgeStyle=none;html=1;exitX=1;exitY=0;exitDx=0;exitDy=0;entryX=0;entryY=0;entryDx=0;entryDy=0;fillColor=#1ba1e2;strokeColor=#006EAF;startArrow=none;startFill=0;strokeWidth=2;" parent="1" source="JBc-oJvSOb936fm6z87Y-31" target="JBc-oJvSOb936fm6z87Y-29" edge="1">
                    <mxGeometry relative="1" as="geometry"/>
                </mxCell>
                <mxCell id="JBc-oJvSOb936fm6z87Y-52" style="edgeStyle=none;html=1;exitX=0;exitY=1;exitDx=0;exitDy=0;entryX=1;entryY=1;entryDx=0;entryDy=0;strokeWidth=2;startArrow=none;startFill=0;elbow=vertical;fillColor=#f0a30a;strokeColor=#BD7000;" parent="1" source="JBc-oJvSOb936fm6z87Y-31" target="JBc-oJvSOb936fm6z87Y-30" edge="1">
                    <mxGeometry relative="1" as="geometry"/>
                </mxCell>
                <mxCell id="JBc-oJvSOb936fm6z87Y-31" value="#ClienteRepository" style="rounded=0;whiteSpace=wrap;html=1;" parent="1" vertex="1">
                    <mxGeometry x="618" y="340" width="120" height="30" as="geometry"/>
                </mxCell>
                <mxCell id="JBc-oJvSOb936fm6z87Y-50" style="html=1;exitX=0.75;exitY=1;exitDx=0;exitDy=0;strokeWidth=2;startArrow=none;startFill=0;elbow=vertical;fillColor=#f0a30a;strokeColor=#BD7000;" parent="1" source="JBc-oJvSOb936fm6z87Y-47" edge="1">
                    <mxGeometry relative="1" as="geometry">
                        <mxPoint x="707" y="310" as="targetPoint"/>
                    </mxGeometry>
                </mxCell>
                <mxCell id="JBc-oJvSOb936fm6z87Y-47" value="" style="image;html=1;image=img/lib/clip_art/computers/Database_128x128.png;strokeColor=default;fillColor=none;gradientColor=none;" parent="1" vertex="1">
                    <mxGeometry x="662" y="160" width="60" height="60" as="geometry"/>
                </mxCell>
                <mxCell id="JBc-oJvSOb936fm6z87Y-48" value="Entrega-db" style="text;html=1;align=center;verticalAlign=middle;resizable=0;points=[];autosize=1;strokeColor=none;fillColor=none;" parent="1" vertex="1">
                    <mxGeometry x="652" y="130" width="80" height="30" as="geometry"/>
                </mxCell>
                <mxCell id="JBc-oJvSOb936fm6z87Y-49" style="html=1;startArrow=none;startFill=0;elbow=vertical;fillColor=#1ba1e2;strokeColor=#006EAF;strokeWidth=2;entryX=0.25;entryY=1;entryDx=0;entryDy=0;exitX=0.469;exitY=-0.005;exitDx=0;exitDy=0;exitPerimeter=0;" parent="1" source="JBc-oJvSOb936fm6z87Y-24" target="JBc-oJvSOb936fm6z87Y-47" edge="1">
                    <mxGeometry relative="1" as="geometry">
                        <mxPoint x="639.7619047619046" y="230" as="targetPoint"/>
                        <mxPoint x="677" y="300" as="sourcePoint"/>
                    </mxGeometry>
                </mxCell>
                <mxCell id="JBc-oJvSOb936fm6z87Y-58" style="edgeStyle=orthogonalEdgeStyle;html=1;exitX=1;exitY=0.5;exitDx=0;exitDy=0;strokeWidth=2;startArrow=none;startFill=0;elbow=vertical;fillColor=#e51400;strokeColor=#B20000;entryX=0.5;entryY=1;entryDx=0;entryDy=0;endArrow=none;endFill=0;" parent="1" target="-iAihdPPw5jGBnyz0dWe-10" edge="1">
                    <mxGeometry relative="1" as="geometry">
                        <Array as="points">
                            <mxPoint x="360" y="791"/>
                        </Array>
                        <mxPoint x="292" y="791" as="sourcePoint"/>
                    </mxGeometry>
                </mxCell>
                <mxCell id="JBc-oJvSOb936fm6z87Y-54" value="#ExceptionHandler" style="rounded=0;whiteSpace=wrap;html=1;" parent="1" vertex="1">
                    <mxGeometry x="180" y="775" width="112" height="30" as="geometry"/>
                </mxCell>
                <mxCell id="JBc-oJvSOb936fm6z87Y-63" value="Banco&amp;nbsp; Postgesql" style="text;html=1;align=center;verticalAlign=middle;resizable=0;points=[];autosize=1;strokeColor=none;fillColor=none;" parent="1" vertex="1">
                    <mxGeometry x="599" y="80" width="120" height="30" as="geometry"/>
                </mxCell>
                <mxCell id="JBc-oJvSOb936fm6z87Y-66" style="edgeStyle=orthogonalEdgeStyle;html=1;exitX=0.5;exitY=0;exitDx=0;exitDy=0;strokeWidth=2;startArrow=none;startFill=0;elbow=vertical;endArrow=none;endFill=0;" parent="1" source="JBc-oJvSOb936fm6z87Y-64" target="JBc-oJvSOb936fm6z87Y-54" edge="1">
                    <mxGeometry relative="1" as="geometry"/>
                </mxCell>
                <mxCell id="JBc-oJvSOb936fm6z87Y-64" value="#Problema" style="rounded=0;whiteSpace=wrap;html=1;" parent="1" vertex="1">
                    <mxGeometry x="180" y="825" width="112" height="30" as="geometry"/>
                </mxCell>
                <mxCell id="GvW7jPXklJ2FE04fTyrZ-2" value="" style="rounded=0;whiteSpace=wrap;html=1;fillColor=none;gradientColor=none;dashed=1;strokeWidth=2;" parent="1" vertex="1">
                    <mxGeometry x="370" y="745" width="170" height="170" as="geometry"/>
                </mxCell>
                <mxCell id="GvW7jPXklJ2FE04fTyrZ-3" value="ExceptionHandler" style="text;html=1;align=center;verticalAlign=middle;resizable=0;points=[];autosize=1;strokeColor=none;fillColor=none;" parent="1" vertex="1">
                    <mxGeometry x="365" y="915" width="120" height="30" as="geometry"/>
                </mxCell>
                <mxCell id="GvW7jPXklJ2FE04fTyrZ-6" value="#NegocioException" style="rounded=0;whiteSpace=wrap;html=1;" parent="1" vertex="1">
                    <mxGeometry x="390" y="805" width="110" height="30" as="geometry"/>
                </mxCell>
                <mxCell id="GvW7jPXklJ2FE04fTyrZ-10" style="html=1;strokeWidth=2;startArrow=none;startFill=0;elbow=vertical;endArrow=none;endFill=0;entryX=1;entryY=0.75;entryDx=0;entryDy=0;" parent="1" source="GvW7jPXklJ2FE04fTyrZ-6" target="JBc-oJvSOb936fm6z87Y-54" edge="1">
                    <mxGeometry relative="1" as="geometry">
                        <mxPoint x="252" y="835" as="sourcePoint"/>
                        <mxPoint x="252" y="815" as="targetPoint"/>
                    </mxGeometry>
                </mxCell>
                <mxCell id="GvW7jPXklJ2FE04fTyrZ-11" style="edgeStyle=orthogonalEdgeStyle;html=1;strokeWidth=2;startArrow=none;startFill=0;elbow=vertical;fillColor=#e51400;strokeColor=#B20000;exitX=0.5;exitY=0;exitDx=0;exitDy=0;entryX=0.5;entryY=1;entryDx=0;entryDy=0;endArrow=none;endFill=0;" parent="1" source="GvW7jPXklJ2FE04fTyrZ-6" target="-iAihdPPw5jGBnyz0dWe-11" edge="1">
                    <mxGeometry relative="1" as="geometry">
                        <mxPoint x="302" y="800" as="sourcePoint"/>
                        <mxPoint x="440" y="370" as="targetPoint"/>
                        <Array as="points">
                            <mxPoint x="445" y="790"/>
                            <mxPoint x="390" y="790"/>
                        </Array>
                    </mxGeometry>
                </mxCell>
                <mxCell id="icWp1zDFvhsG5OrbaavB-1" style="edgeStyle=none;html=1;exitX=0.5;exitY=1;exitDx=0;exitDy=0;entryX=0.5;entryY=0;entryDx=0;entryDy=0;endArrow=none;endFill=0;" parent="1" source="BR-OVZrvSuAhdLlEZNh9-1" target="BR-OVZrvSuAhdLlEZNh9-2" edge="1">
                    <mxGeometry relative="1" as="geometry"/>
                </mxCell>
                <mxCell id="-iAihdPPw5jGBnyz0dWe-4" style="edgeStyle=orthogonalEdgeStyle;html=1;exitX=1;exitY=0.5;exitDx=0;exitDy=0;entryX=1;entryY=0.5;entryDx=0;entryDy=0;endArrow=none;endFill=0;" parent="1" source="BR-OVZrvSuAhdLlEZNh9-1" target="BR-OVZrvSuAhdLlEZNh9-3" edge="1">
                    <mxGeometry relative="1" as="geometry"/>
                </mxCell>
                <mxCell id="BR-OVZrvSuAhdLlEZNh9-1" value="#Entrega" style="rounded=0;whiteSpace=wrap;html=1;" parent="1" vertex="1">
                    <mxGeometry x="818" y="435" width="130" height="30" as="geometry"/>
                </mxCell>
                <mxCell id="BR-OVZrvSuAhdLlEZNh9-2" value="#Destinatario" style="rounded=0;whiteSpace=wrap;html=1;" parent="1" vertex="1">
                    <mxGeometry x="818" y="495" width="130" height="30" as="geometry"/>
                </mxCell>
                <mxCell id="BR-OVZrvSuAhdLlEZNh9-3" value="#StatusEntrega" style="rounded=0;whiteSpace=wrap;html=1;" parent="1" vertex="1">
                    <mxGeometry x="818" y="549" width="130" height="30" as="geometry"/>
                </mxCell>
                <mxCell id="-iAihdPPw5jGBnyz0dWe-2" value="#EntregaRepository" style="rounded=0;whiteSpace=wrap;html=1;" parent="1" vertex="1">
                    <mxGeometry x="613" y="435" width="130" height="30" as="geometry"/>
                </mxCell>
                <mxCell id="-iAihdPPw5jGBnyz0dWe-5" style="edgeStyle=none;html=1;exitX=1;exitY=0;exitDx=0;exitDy=0;entryX=0;entryY=0;entryDx=0;entryDy=0;fillColor=#1ba1e2;strokeColor=#006EAF;startArrow=none;startFill=0;strokeWidth=2;" parent="1" source="-iAihdPPw5jGBnyz0dWe-2" target="BR-OVZrvSuAhdLlEZNh9-1" edge="1">
                    <mxGeometry relative="1" as="geometry">
                        <mxPoint x="747.9999999999998" y="385" as="sourcePoint"/>
                        <mxPoint x="827.9999999999998" y="385" as="targetPoint"/>
                    </mxGeometry>
                </mxCell>
                <mxCell id="-iAihdPPw5jGBnyz0dWe-6" style="edgeStyle=none;html=1;exitX=0;exitY=1;exitDx=0;exitDy=0;entryX=1;entryY=1;entryDx=0;entryDy=0;strokeWidth=2;startArrow=none;startFill=0;elbow=vertical;fillColor=#f0a30a;strokeColor=#BD7000;" parent="1" source="BR-OVZrvSuAhdLlEZNh9-1" target="-iAihdPPw5jGBnyz0dWe-2" edge="1">
                    <mxGeometry relative="1" as="geometry">
                        <mxPoint x="827.9999999999998" y="415" as="sourcePoint"/>
                        <mxPoint x="747.9999999999998" y="415" as="targetPoint"/>
                    </mxGeometry>
                </mxCell>
                <mxCell id="-iAihdPPw5jGBnyz0dWe-7" style="edgeStyle=none;html=1;exitX=1;exitY=0;exitDx=0;exitDy=0;entryX=0;entryY=0;entryDx=0;entryDy=0;fillColor=#1ba1e2;strokeColor=#006EAF;startArrow=none;startFill=0;strokeWidth=2;" parent="1" source="-iAihdPPw5jGBnyz0dWe-8" target="-iAihdPPw5jGBnyz0dWe-2" edge="1">
                    <mxGeometry relative="1" as="geometry">
                        <mxPoint x="557.9999999999998" y="385" as="sourcePoint"/>
                        <mxPoint x="627.9999999999998" y="385" as="targetPoint"/>
                    </mxGeometry>
                </mxCell>
                <mxCell id="-iAihdPPw5jGBnyz0dWe-8" value="#EntregaService" style="rounded=0;whiteSpace=wrap;html=1;" parent="1" vertex="1">
                    <mxGeometry x="428" y="435" width="120" height="30" as="geometry"/>
                </mxCell>
                <mxCell id="-iAihdPPw5jGBnyz0dWe-9" style="edgeStyle=none;html=1;exitX=0;exitY=1;exitDx=0;exitDy=0;entryX=1;entryY=1;entryDx=0;entryDy=0;strokeWidth=2;startArrow=none;startFill=0;elbow=vertical;fillColor=#f0a30a;strokeColor=#BD7000;" parent="1" source="-iAihdPPw5jGBnyz0dWe-2" target="-iAihdPPw5jGBnyz0dWe-8" edge="1">
                    <mxGeometry relative="1" as="geometry">
                        <mxPoint x="627.9999999999998" y="415" as="sourcePoint"/>
                        <mxPoint x="557.9999999999998" y="415" as="targetPoint"/>
                    </mxGeometry>
                </mxCell>
                <mxCell id="-iAihdPPw5jGBnyz0dWe-10" value="1" style="ellipse;whiteSpace=wrap;html=1;fillColor=#a20025;fontColor=#ffffff;strokeColor=#6F0000;" parent="1" vertex="1">
                    <mxGeometry x="350" y="710" width="20" height="20" as="geometry"/>
                </mxCell>
                <mxCell id="-iAihdPPw5jGBnyz0dWe-11" value="2" style="ellipse;whiteSpace=wrap;html=1;fillColor=#a20025;fontColor=#ffffff;strokeColor=#6F0000;" parent="1" vertex="1">
                    <mxGeometry x="380" y="710" width="20" height="20" as="geometry"/>
                </mxCell>
                <mxCell id="-iAihdPPw5jGBnyz0dWe-15" value="1" style="ellipse;whiteSpace=wrap;html=1;fillColor=#a20025;fontColor=#ffffff;strokeColor=#6F0000;" parent="1" vertex="1">
                    <mxGeometry x="363" y="314" width="20" height="20" as="geometry"/>
                </mxCell>
                <mxCell id="-iAihdPPw5jGBnyz0dWe-16" value="2" style="ellipse;whiteSpace=wrap;html=1;fillColor=#a20025;fontColor=#ffffff;strokeColor=#6F0000;" parent="1" vertex="1">
                    <mxGeometry x="366" y="380" width="20" height="20" as="geometry"/>
                </mxCell>
                <mxCell id="-iAihdPPw5jGBnyz0dWe-27" style="edgeStyle=orthogonalEdgeStyle;html=1;exitX=0.317;exitY=0.967;exitDx=0;exitDy=0;entryX=1;entryY=0.5;entryDx=0;entryDy=0;strokeWidth=2;startArrow=classic;startFill=1;endArrow=classic;endFill=1;fillColor=#e51400;strokeColor=#B20000;exitPerimeter=0;" parent="1" source="-iAihdPPw5jGBnyz0dWe-8" target="-iAihdPPw5jGBnyz0dWe-30" edge="1">
                    <mxGeometry relative="1" as="geometry">
                        <mxPoint x="462.9999999999998" y="464.0000000000001" as="sourcePoint"/>
                    </mxGeometry>
                </mxCell>
                <mxCell id="-iAihdPPw5jGBnyz0dWe-28" style="edgeStyle=orthogonalEdgeStyle;html=1;entryX=1;entryY=0.5;entryDx=0;entryDy=0;strokeWidth=2;startArrow=classic;startFill=1;endArrow=classic;endFill=1;fillColor=#e51400;strokeColor=#B20000;exitX=0.298;exitY=0.038;exitDx=0;exitDy=0;exitPerimeter=0;" parent="1" source="-iAihdPPw5jGBnyz0dWe-8" target="-iAihdPPw5jGBnyz0dWe-29" edge="1">
                    <mxGeometry relative="1" as="geometry">
                        <mxPoint x="462.9999999999998" y="434.0000000000001" as="sourcePoint"/>
                        <Array as="points">
                            <mxPoint x="464" y="418"/>
                        </Array>
                    </mxGeometry>
                </mxCell>
                <mxCell id="-iAihdPPw5jGBnyz0dWe-29" value="1" style="ellipse;whiteSpace=wrap;html=1;fillColor=#a20025;fontColor=#ffffff;strokeColor=#6F0000;" parent="1" vertex="1">
                    <mxGeometry x="368" y="408" width="20" height="20" as="geometry"/>
                </mxCell>
                <mxCell id="-iAihdPPw5jGBnyz0dWe-30" value="2" style="ellipse;whiteSpace=wrap;html=1;fillColor=#a20025;fontColor=#ffffff;strokeColor=#6F0000;" parent="1" vertex="1">
                    <mxGeometry x="367" y="474" width="20" height="20" as="geometry"/>
                </mxCell>
            </root>
        </mxGraphModel>
    </diagram>
</mxfile>